PathFileType	4	(X/Y/Z)	/Users/itak/Documents/Research/Walk-IL/dataset/trc/00188_00008.trc
DataRate	CameraRate	NumFrames	NumMarkers	Units	OrigDataRate	OrigDataStartFrame	OrigNumFrames
100.000000	100.000000	4	53	mm	100.000000	0	812
Frame#	Time	RPSI			LPSI			L3			STRN			T10			C7			CLAV			RBAK			LBAK			LSHO			LUPA			LAEL			LAOL			LWTS			LWPS			LFRA			LIFD			LHPS			LHTS			RSHO			RUPA			RAEL			RAOL			RWTS			RWPS			RFRA			RIFD			RHTS			RHPS			RBHD			LFHD			RFHD			LBHD			LHIP			RHIP			RASI			LASI			LKNE			LTHI			LANK			LTIP			LTOE			LMT1			LMT5			LHEE			RKNE			RTHI			RANK			RTIP			RTOE			RMT1			RMT5			RHEE			
		X1	Y1	Z1	X2	Y2	Z2	X3	Y3	Z3	X4	Y4	Z4	X5	Y5	Z5	X6	Y6	Z6	X7	Y7	Z7	X8	Y8	Z8	X9	Y9	Z9	X10	Y10	Z10	X11	Y11	Z11	X12	Y12	Z12	X13	Y13	Z13	X14	Y14	Z14	X15	Y15	Z15	X16	Y16	Z16	X17	Y17	Z17	X18	Y18	Z18	X19	Y19	Z19	X20	Y20	Z20	X21	Y21	Z21	X22	Y22	Z22	X23	Y23	Z23	X24	Y24	Z24	X25	Y25	Z25	X26	Y26	Z26	X27	Y27	Z27	X28	Y28	Z28	X29	Y29	Z29	X30	Y30	Z30	X31	Y31	Z31	X32	Y32	Z32	X33	Y33	Z33	X34	Y34	Z34	X35	Y35	Z35	X36	Y36	Z36	X37	Y37	Z37	X38	Y38	Z38	X39	Y39	Z39	X40	Y40	Z40	X41	Y41	Z41	X42	Y42	Z42	X43	Y43	Z43	X44	Y44	Z44	X45	Y45	Z45	X46	Y46	Z46	X47	Y47	Z47	X48	Y48	Z48	X49	Y49	Z49	X50	Y50	Z50	X51	Y51	Z51	X52	Y52	Z52	X53	Y53	Z53	

1	0	371.8079223632812	1057.506103515625	974.5724487304688	358.6180114746094	1057.459716796875	1097.538452148438	364.0867309570312	1094.9072265625	1033.879150390625	105.8511199951172	1304.46533203125	1012.034362792969	399.3667907714844	1253.580322265625	1046.866821289062	330.3104248046875	1522.384643554688	1052.658203125	135.6966705322266	1413.78515625	1023.508666992188	412.873291015625	1347.799560546875	952.048828125	325.9619445800781	1497.319213867188	1152.619262695312	241.42333984375	1483.490844726562	1222.000122070312	266.7413635253906	1349.565185546875	1296.004272460938	248.3830261230469	1131.80615234375	1309.30419921875	304.3385620117188	1115.859741210938	1243.013916015625	131.0770568847656	908.8179321289062	1263.072265625	207.0136566162109	880.0172119140625	1310.91064453125	229.3367004394531	1021.81689453125	1319.71142578125	126.2594299316406	750.6653442382812	1216.505249023438	184.4609375	811.6023559570312	1301.863037109375	115.7675933837891	826.0358276367188	1278.6484375	290.8587341308594	1499.415405273438	865.0205078125	318.4969787597656	1433.001708984375	797.884033203125	330.52685546875	1143.564208984375	742.0116577148438	327.0972290039062	1135.384765625	839.8601684570312	179.3497467041016	923.0602416992188	746.6688232421875	257.4751892089844	902.3829345703125	707.0867309570312	304.0968627929688	1072.251098632812	721.21337890625	155.0240020751953	732.427978515625	764.6278686523438	151.7991333007812	828.6680297851562	735.4791870117188	226.9054260253906	820.3471069335938	707.7027587890625	219.0328216552734	1693.087036132812	962.393798828125	45.92431640625	1679.556518554688	1092.915405273438	44.11010360717773	1676.91064453125	962.1110229492188	222.2952270507812	1705.2041015625	1098.587036132812	243.4146423339844	996.7200927734375	1203.890380859375	229.0466918945312	1018.307861328125	832.6270141601562	142.2855377197266	1044.6044921875	879.5631713867188	123.1492538452148	1033.229736328125	1138.6513671875	247.4696655273438	502.1170349121094	1174.62841796875	234.6480560302734	644.659423828125	1199.361694335938	338.636474609375	47.05671310424805	1191.452392578125	291.188232421875	282.1830444335938	1195.923461914062	118.0404205322266	43.98498153686523	1177.14697265625	165.5857543945312	43.41422653198242	1125.79833984375	232.2381591796875	38.18174362182617	1237.493408203125	386.0023803710938	43.16834259033203	1119.069213867188	245.5269775390625	520.0272827148438	839.342529296875	188.4504089355469	787.4008178710938	813.6569213867188	340.02197265625	41.19350814819336	833.016357421875	238.7741394042969	402.6191711425781	852.0792846679688	113.9173889160156	43.11080551147461	842.3665161132812	164.3970184326172	41.2114143371582	893.728759765625	231.3765258789062	40.27457809448242	785.8436279296875	384.8084716796875	38.05386352539062	904.188720703125	
2	0.01	371.9032897949219	1057.54443359375	974.6813354492188	358.6353149414062	1057.498901367188	1097.644409179688	364.1390991210938	1094.953125	1034.00048828125	105.912109375	1304.458740234375	1012.045043945312	399.37255859375	1253.619018554688	1046.99658203125	330.3038940429688	1522.411865234375	1052.746215820312	135.7148590087891	1413.780883789062	1023.516723632812	412.9025268554688	1347.83984375	952.1876831054688	325.8866882324219	1497.36474609375	1152.710815429688	241.3288269042969	1483.52197265625	1222.056884765625	266.5970153808594	1349.59619140625	1296.068969726562	248.2131500244141	1131.868530273438	1309.447631835938	304.1632385253906	1115.877807617188	1243.170654296875	130.8511657714844	908.9185791015625	1263.277099609375	206.7796783447266	880.103515625	1311.09228515625	229.1471099853516	1021.872497558594	1319.85009765625	125.8162612915039	750.5462646484375	1216.778076171875	184.1598358154297	811.674560546875	1302.073852539062	115.4543762207031	826.2257690429688	1278.866088867188	290.8995666503906	1499.42333984375	865.0842895507812	318.5496215820312	1432.98828125	797.9542846679688	330.5050659179688	1143.483764648438	742.2029418945312	327.0856018066406	1135.367797851562	840.0270385742188	179.0829925537109	923.1136474609375	747.0030517578125	257.1528625488281	902.3617553710938	707.4510498046875	303.9825439453125	1072.173583984375	721.4457397460938	154.4971466064453	732.5209350585938	765.1072998046875	151.3472442626953	828.7601928710938	735.8585815429688	226.5042419433594	820.3291015625	708.1246948242188	219.1680908203125	1693.099609375	962.4083862304688	45.99934387207031	1679.718994140625	1092.879150390625	44.23777008056641	1677.04736328125	961.999267578125	222.3677520751953	1705.236694335938	1098.603759765625	243.3892059326172	996.7266845703125	1203.924072265625	229.1571655273438	1018.334228515625	832.632080078125	142.4587860107422	1044.678955078125	879.5648803710938	122.7049407958984	1033.69677734375	1138.76953125	247.4834747314453	502.118896484375	1174.6484375	234.7291564941406	644.6928100585938	1199.358276367188	338.6487731933594	47.0504264831543	1191.466552734375	291.174560546875	282.1749572753906	1195.947265625	118.0460739135742	43.98825836181641	1177.141723632812	165.5935516357422	43.4134521484375	1125.803466796875	232.2554168701172	38.16995239257812	1237.458862304688	386.0054626464844	43.15218353271484	1119.088500976562	245.5612487792969	520.0328979492188	839.3309936523438	188.5016326904297	787.43603515625	813.6633911132812	340.0231323242188	41.1826286315918	833.0076904296875	238.7832489013672	402.6098022460938	852.0653686523438	113.9229431152344	43.11525344848633	842.3685913085938	164.4051666259766	41.21498107910156	893.7216186523438	231.3796844482422	40.27630615234375	785.8343505859375	384.8192138671875	38.04404067993164	904.18017578125	
3	0.02	372.0179748535156	1057.58984375	974.8175048828125	358.6572265625	1057.551513671875	1097.774658203125	364.2055358886719	1095.011840820312	1034.15185546875	105.9980621337891	1304.451049804688	1012.060668945312	399.3786315917969	1253.671875	1047.162841796875	330.2916870117188	1522.447875976562	1052.859008789062	135.7396392822266	1413.779052734375	1023.529296875	412.9385375976562	1347.896362304688	952.368408203125	325.7903442382812	1497.423095703125	1152.830444335938	241.2044219970703	1483.563720703125	1222.129272460938	266.4115600585938	1349.637817382812	1296.150756835938	247.9954223632812	1131.9482421875	1309.625122070312	303.95166015625	1115.90576171875	1243.36279296875	130.5740814208984	909.0409545898438	1263.535034179688	206.4807281494141	880.20703125	1311.326171875	228.9072265625	1021.94287109375	1320.023681640625	125.3160018920898	750.3870239257812	1217.149658203125	183.8054351806641	811.7716674804688	1302.33837890625	115.0876312255859	826.4412231445312	1279.13671875	290.9544067382812	1499.4384765625	865.1690673828125	318.6241760253906	1432.973510742188	798.0513916015625	330.48193359375	1143.38720703125	742.447265625	327.0658874511719	1135.351196289062	840.2473754882812	178.7462768554688	923.1951904296875	747.4239501953125	256.7553405761719	902.334716796875	707.9112548828125	303.843505859375	1072.081420898438	721.7435302734375	153.8511962890625	732.6553344726562	765.7142944335938	150.7967834472656	828.8829956054688	736.3453979492188	226.0088653564453	820.3170166015625	708.6605834960938	219.3384552001953	1693.116943359375	962.4322509765625	46.08524703979492	1679.927368164062	1092.830810546875	44.39574813842773	1677.220092773438	961.8682861328125	222.4569702148438	1705.277465820312	1098.629028320312	243.3630218505859	996.7385864257812	1203.968994140625	229.3024139404297	1018.367797851562	832.6378784179688	142.6873931884766	1044.770751953125	879.5700073242188	122.2999954223633	1034.130493164062	1138.87109375	247.4859771728516	502.1226501464844	1174.671997070312	234.7984924316406	644.7240600585938	1199.361328125	338.6619262695312	47.04302978515625	1191.481689453125	291.1498718261719	282.1634521484375	1195.97509765625	118.0542831420898	43.99273681640625	1177.134643554688	165.5992431640625	43.41218566894531	1125.807006835938	232.270751953125	38.1568603515625	1237.418334960938	386.0092468261719	43.13459396362305	1119.108276367188	245.5930023193359	520.0390014648438	839.3171997070312	188.5759735107422	787.4791870117188	813.667236328125	340.0248107910156	41.17014312744141	832.9952392578125	238.7876586914062	402.5951843261719	852.04833984375	113.9296493530273	43.12109756469727	842.371337890625	164.4150238037109	41.21853256225586	893.7141723632812	231.3840484619141	40.27809524536133	785.8248291015625	384.832275390625	38.03076171875	904.167236328125	
4	0.03	372.145263671875	1057.63916015625	974.9737548828125	358.683837890625	1057.616455078125	1097.922729492188	364.2830200195312	1095.082153320312	1034.326416015625	106.1091842651367	1304.443359375	1012.083129882812	399.3840942382812	1253.738525390625	1047.360595703125	330.27197265625	1522.493041992188	1052.993530273438	135.7711791992188	1413.781616210938	1023.547607421875	412.9796142578125	1347.968505859375	952.5863647460938	325.675048828125	1497.492797851562	1152.975463867188	241.0524444580078	1483.615844726562	1222.215209960938	266.1893005371094	1349.689819335938	1296.247192382812	247.73681640625	1132.042724609375	1309.827880859375	303.7160339355469	1115.945556640625	1243.580932617188	130.2603759765625	909.1768188476562	1263.834228515625	206.1324920654297	880.3211059570312	1311.603149414062	228.6247711181641	1022.02587890625	1320.226196289062	124.8033218383789	750.191162109375	1217.614868164062	183.422119140625	811.8912963867188	1302.645874023438	114.6948623657227	826.663818359375	1279.448852539062	291.0223083496094	1499.462158203125	865.2738037109375	318.7217407226562	1432.958984375	798.175537109375	330.4602966308594	1143.281005859375	742.7365112304688	327.0374450683594	1135.337890625	840.5171508789062	178.3553161621094	923.3085327148438	747.916259765625	256.3040466308594	902.30322265625	708.4501342773438	303.6895446777344	1071.981201171875	722.0973510742188	153.1187591552734	732.83203125	766.4262084960938	150.1771087646484	829.0374755859375	736.9239501953125	225.4423980712891	820.3156127929688	709.2908325195312	219.5362548828125	1693.138916015625	962.4669799804688	46.17367553710938	1680.17333984375	1092.76953125	44.5782356262207	1677.4208984375	961.7305297851562	222.5573425292969	1705.324096679688	1098.664184570312	243.3400268554688	996.7569580078125	1204.02490234375	229.4801483154297	1018.406982421875	832.6448974609375	142.9663696289062	1044.8740234375	879.5785522460938	121.9882354736328	1034.478271484375	1138.9443359375	247.4713134765625	502.1291198730469	1174.698486328125	234.8460845947266	644.7506713867188	1199.37255859375	338.6740112304688	47.03534317016602	1191.495971679688	291.1114501953125	282.1487426757812	1196.004760742188	118.0646362304688	43.99817276000977	1177.126708984375	165.6016082763672	43.41073989868164	1125.808227539062	232.279541015625	38.14803314208984	1237.381103515625	386.0130615234375	43.11734008789062	1119.125854492188	245.6177978515625	520.0452880859375	839.3026733398438	188.6692810058594	787.527587890625	813.6685791015625	340.0270690917969	41.15727233886719	832.97900390625	238.7840881347656	402.5751647949219	852.030029296875	113.9366836547852	43.12775039672852	842.3743286132812	164.4254302978516	41.22158813476562	893.7074584960938	231.388671875	40.27967071533203	785.816162109375	384.8457946777344	38.01475524902344	904.1500244140625	
